<?xml version="1.0" encoding="UTF-8" standalone="no"?>
<!-- Created with Inkscape (http://www.inkscape.org/) -->

<svg
   width="100"
   height="50"
   viewBox="0 0 100 50"
   version="1.1"
   id="svg5"
   inkscape:version="1.2.1 (9c6d41e410, 2022-07-14)"
   sodipodi:docname="logo.svg"
   xmlns:inkscape="http://www.inkscape.org/namespaces/inkscape"
   xmlns:sodipodi="http://sodipodi.sourceforge.net/DTD/sodipodi-0.dtd"
   xmlns="http://www.w3.org/2000/svg"
   xmlns:svg="http://www.w3.org/2000/svg">
  <sodipodi:namedview
     id="namedview7"
     pagecolor="#ffffff"
     bordercolor="#666666"
     borderopacity="1.0"
     inkscape:showpageshadow="2"
     inkscape:pageopacity="0.0"
     inkscape:pagecheckerboard="0"
     inkscape:deskcolor="#d1d1d1"
     inkscape:document-units="px"
     showgrid="false"
     inkscape:zoom="8"
     inkscape:cx="50.4375"
     inkscape:cy="38.75"
     inkscape:window-width="1920"
     inkscape:window-height="1009"
     inkscape:window-x="-8"
     inkscape:window-y="-8"
     inkscape:window-maximized="1"
     inkscape:current-layer="layer1" />
  <defs
     id="defs2">
    <inkscape:path-effect
       effect="taper_stroke"
       id="path-effect1018"
       is_visible="true"
       lpeversion="1"
       stroke_width="1.9673748"
       attach_start="0.66204935"
       end_offset="0.24864302"
       start_smoothing="0.5"
       end_smoothing="0.5"
       jointype="extrapolated"
       start_shape="center"
       end_shape="center"
       miter_limit="100" />
    <inkscape:path-effect
       effect="taper_stroke"
       id="path-effect1012"
       is_visible="true"
       lpeversion="1"
       stroke_width="1.9673748"
       attach_start="0.66204935"
       end_offset="0.24864302"
       start_smoothing="0.5"
       end_smoothing="0.5"
       jointype="extrapolated"
       start_shape="center"
       end_shape="center"
       miter_limit="100" />
  </defs>
  <g
     inkscape:label="Layer 1"
     inkscape:groupmode="layer"
     id="layer1"
     transform="translate(0.67472932,0.67473023)">
    <rect
       style="fill:#ffffff;stroke:#000000;stroke-width:1.82177;stroke-linejoin:round;stroke-dasharray:none;paint-order:markers fill stroke;stop-color:#000000"
       id="rect1072"
       width="98.17823"
       height="48.178234"
       x="0.23615456"
       y="0.23615365"
       ry="6.8826056" />
    <path
       style="fill:#000000;fill-rule:nonzero;stroke:none;stroke-width:0.520533px;stroke-linecap:butt;stroke-linejoin:miter;stroke-opacity:1"
       d="m 32.210756,16.68009 c -0.21073,2.870274 -0.683805,5.745271 -1.170998,8.514469 -0.580672,3.294868 -1.230288,6.484401 -1.806786,9.222356 -1.434525,6.176592 -2.316384,10.472975 -2.316384,10.472975 0,0 1.456174,-4.136004 3.410537,-10.181695 0.813079,-2.704421 1.686548,-5.842147 2.433393,-9.168733 0.622873,-2.769035 1.187933,-5.706241 1.412247,-8.714165 0.153436,-2.073186 0.09941,-3.988049 -0.270222,-5.248882 C 33.17222,9.0852392 31.193936,8.5309444 28.620344,10.444553 13.622865,21.596015 7.4821057,26.64338 10.726747,28.404993 c 0.755318,0.410085 1.747141,0.3355 2.90958,0.169425 5.730066,-0.818642 19.325034,-5.636031 33.00268,-7.836158 6.853247,-1.073952 11.966833,-1.758648 17.2106,-1.408335 4.640115,0.309985 7.647942,1.419321 7.647942,1.419321 0,0 -2.800309,-1.566649 -7.531007,-2.388466 -5.133699,-0.891827 -10.900488,-0.676716 -17.639982,0.435074 -14.869643,2.391867 -29.659505,7.820184 -34.030221,7.931391 -0.445142,0.01133 -0.604775,-0.03706 -0.630876,-0.05123 0,0 0.01757,0.01072 0.01757,0.01072 0,0 0.197341,0.360979 0.197341,0.360979 0,0 -2.75e-4,0.024 -2.75e-4,0.024 0,0 -0.0013,0.01289 -0.0013,0.01289 0,0 0.001,-0.0046 0.0017,-0.0072 0.0018,-0.007 0.0049,-0.01765 0.01019,-0.03284 0.0059,-0.01688 0.01417,-0.03793 0.02562,-0.06367 0.699563,-1.571904 5.899238,-6.050705 17.877906,-14.957512 1.610256,-1.197315 1.945743,-0.830231 2.220377,0.106562 0.302631,1.03229 0.345453,2.532606 0.196131,4.550205 z"
       id="path243"
       sodipodi:nodetypes="csc"
       inkscape:path-effect="#path-effect1012"
       inkscape:original-d="m 26.916575,44.889932 c 0,0 12.625341,-41.3403584 2.290721,-33.655994 -49.845217,37.062698 14.921257,-1.5858834 42.290253,9.515308" />
    <path
       style="fill:#000000;fill-rule:nonzero;stroke:none;stroke-width:0.520533px;stroke-linecap:butt;stroke-linejoin:miter;stroke-opacity:1"
       d="m 63.795134,36.451059 c 0.21073,-2.870273 0.683805,-5.74527 1.170998,-8.514469 0.580672,-3.294867 1.230288,-6.484401 1.806786,-9.222356 1.434525,-6.176592 2.316384,-10.4729744 2.316384,-10.4729744 0,0 -1.456174,4.1360034 -3.410537,10.1816944 -0.813079,2.704422 -1.686548,5.842147 -2.433393,9.168734 -0.622873,2.769034 -1.187933,5.70624 -1.412247,8.714164 -0.153436,2.073187 -0.09941,3.988049 0.270222,5.248883 0.730323,2.491175 2.708607,3.04547 5.282199,1.131861 14.997476,-11.151462 21.138233,-16.198827 17.893592,-17.96044 -0.755318,-0.410084 -1.747141,-0.335499 -2.90958,-0.169424 -5.730065,0.818642 -19.325031,5.636031 -33.002677,7.836158 -6.853246,1.073952 -11.966832,1.758648 -17.210599,1.408335 -4.640114,-0.309985 -7.647941,-1.419321 -7.647941,-1.419321 0,0 2.800309,1.566649 7.531007,2.388466 5.133698,0.891828 10.900487,0.676716 17.63998,-0.435074 14.869642,-2.391866 29.659502,-7.820184 34.030218,-7.931391 0.445142,-0.01133 0.604776,0.03706 0.630876,0.05123 0,0 -0.01757,-0.01072 -0.01757,-0.01072 0,0 -0.197341,-0.360979 -0.197341,-0.360979 0,0 2.75e-4,-0.024 2.75e-4,-0.024 0,0 0.0013,-0.01289 0.0013,-0.01289 0,0 -0.001,0.0046 -0.0017,0.0072 -0.0018,0.007 -0.0049,0.01765 -0.01019,0.03284 -0.0059,0.01688 -0.01417,0.03793 -0.02562,0.06367 -0.699563,1.571904 -5.899237,6.050704 -17.877902,14.957511 -1.610256,1.197315 -1.945743,0.830231 -2.220377,-0.106561 -0.302631,-1.032291 -0.345453,-2.532606 -0.196131,-4.550206 z"
       id="path1014"
       sodipodi:nodetypes="csc"
       inkscape:path-effect="#path-effect1018"
       inkscape:original-d="m 69.089315,8.2412175 c 0,0 -12.625341,41.3403585 -2.290721,33.6559935 C 116.6438,4.8345134 51.877337,43.483096 24.508341,32.381904" />
  </g>
</svg>
